<?xml version="1.0" encoding="utf-8"?>
<!-- Generator: Adobe Illustrator 24.2.1, SVG Export Plug-In . SVG Version: 6.00 Build 0)  -->
<svg version="1.1" id="Layer_1" xmlns="http://www.w3.org/2000/svg" xmlns:xlink="http://www.w3.org/1999/xlink" x="0px" y="0px"
	 viewBox="0 0 1190.55 841.89" style="enable-background:new 0 0 1190.55 841.89;" xml:space="preserve">
<style type="text/css">
	.st0{fill:#232323;}
	.st1{fill:#F9A649;}
	.st2{fill:#192530;}
	.st3{fill-rule:evenodd;clip-rule:evenodd;fill:#647B98;}
	.st4{fill:#647B98;}
</style>
<g>
	<g>
		<path class="st1" d="M572.39,522.57c-1.22-1.66-2.85-2.95-4.87-3.88c-2.03-0.93-4.58-1.39-7.65-1.39c-2.74,0-5.13,0.42-7.18,1.24
			s-3.74,2.04-5.05,3.64c-1.32,1.6-2.31,3.52-2.97,5.76c-0.66,2.24-0.99,4.8-0.99,7.67c0,2.67,0.27,5.12,0.81,7.37
			c0.54,2.24,1.4,4.19,2.6,5.85c1.2,1.66,2.82,2.94,4.87,3.85c2.05,0.91,4.59,1.36,7.62,1.36c2.78,0,5.2-0.41,7.25-1.24
			c2.05-0.83,3.74-2.03,5.05-3.61c1.32-1.58,2.3-3.49,2.93-5.73c0.63-2.24,0.95-4.8,0.95-7.67c0-2.67-0.26-5.13-0.77-7.37
			C574.47,526.17,573.61,524.22,572.39,522.57z"/>
		<path class="st1" d="M325.86,536.78c-0.63-2.58-1.41-4.76-2.33-6.54c-0.93-1.78-2.05-3.21-3.37-4.27
			c-1.32-1.06-2.81-1.82-4.49-2.27c-1.68-0.45-3.53-0.67-5.56-0.67c-3.53,0-6.45,0.71-8.75,2.12c-2.3,1.41-4.13,3.53-5.47,6.35
			c-1.35,2.82-2.29,6.34-2.83,10.55c-0.54,4.21-0.81,9.11-0.81,14.71c0,6.84,0.33,12.5,0.99,16.98c0.66,4.48,1.69,8.05,3.1,10.7
			c1.41,2.65,3.22,4.51,5.43,5.57c2.21,1.07,4.88,1.6,7.99,1.6c2.33,0,4.4-0.31,6.19-0.93c1.79-0.62,3.36-1.55,4.71-2.79
			c1.35-1.24,2.47-2.8,3.36-4.68c0.9-1.88,1.63-4.06,2.2-6.54c0.57-2.48,0.96-5.27,1.17-8.4c0.21-3.12,0.31-6.56,0.31-10.33
			c0-4.56-0.15-8.58-0.45-12.07C326.95,542.39,326.49,539.36,325.86,536.78z"/>
		<path class="st1" d="M420.91,582.15c-0.47-0.69-1.05-1.19-1.75-1.48c-0.7-0.29-1.52-0.44-2.46-0.44c-0.92,0-1.71,0.13-2.37,0.4
			c-0.66,0.27-1.21,0.64-1.65,1.13c-0.44,0.48-0.76,1.06-0.98,1.72c-0.21,0.66-0.32,1.39-0.32,2.18c0,0.85,0.09,1.61,0.28,2.26
			c0.18,0.65,0.48,1.19,0.88,1.62c0.4,0.43,0.92,0.75,1.56,0.96c0.64,0.21,1.42,0.31,2.34,0.31c1.13,0,2.2-0.14,3.2-0.42
			c1-0.28,1.9-0.66,2.67-1.13c0-1.73-0.12-3.17-0.35-4.33C421.73,583.77,421.38,582.85,420.91,582.15z"/>
		<path class="st1" d="M400.02,540.34c-2.1,0.36-3.81,0.91-5.13,1.64c-1.32,0.73-2.28,1.61-2.89,2.64
			c-0.61,1.03-0.92,2.21-0.92,3.55c0,2.27,0.87,4.04,2.6,5.34c1.73,1.29,4.14,1.94,7.22,1.94c2.59,0,4.97-0.54,7.14-1.64
			c2.17-1.09,4.38-2.69,6.63-4.79v-9.22h-7.03C404.66,539.79,402.12,539.97,400.02,540.34z"/>
		<path class="st1" d="M584.86,584.86c-0.21-0.84-0.46-1.55-0.76-2.13c-0.3-0.58-0.67-1.04-1.1-1.39s-0.92-0.59-1.46-0.74
			c-0.55-0.15-1.15-0.22-1.81-0.22c-1.15,0-2.1,0.23-2.85,0.69c-0.75,0.46-1.34,1.15-1.78,2.07c-0.44,0.92-0.75,2.06-0.92,3.44
			c-0.18,1.37-0.26,2.97-0.26,4.79c0,2.23,0.11,4.07,0.32,5.53c0.21,1.46,0.55,2.62,1.01,3.49c0.46,0.86,1.05,1.47,1.77,1.82
			c0.72,0.35,1.59,0.52,2.6,0.52c0.76,0,1.43-0.1,2.02-0.3c0.58-0.2,1.1-0.5,1.53-0.91c0.44-0.4,0.8-0.91,1.1-1.52
			c0.29-0.61,0.53-1.32,0.72-2.13c0.18-0.81,0.31-1.72,0.38-2.73c0.07-1.02,0.1-2.14,0.1-3.37c0-1.48-0.05-2.79-0.15-3.93
			C585.22,586.69,585.07,585.7,584.86,584.86z"/>
		<path class="st1" d="M682.54,534.73c0-24.75,2.6-28.77,7.34-41.39H191.85c-31.73,0-57.68,25.95-57.68,57.64v66.95l590.07-0.27
			C700.12,600.7,682.54,559.43,682.54,534.73z M253.48,588.16c-2.18,4.09-5.27,7.53-9.24,10.33c-3.98,2.8-8.77,4.94-14.36,6.43
			c-5.59,1.49-11.8,2.23-18.62,2.23c-3.59,0-7-0.19-10.23-0.56c-3.23-0.37-6.13-0.84-8.7-1.41c-2.57-0.57-4.68-1.14-6.33-1.71
			c-1.65-0.57-2.72-1.04-3.23-1.41c-0.51-0.37-0.88-0.78-1.12-1.23c-0.24-0.45-0.43-0.98-0.58-1.6c-0.15-0.62-0.25-1.4-0.31-2.34
			c-0.06-0.94-0.09-2.05-0.09-3.34c0-1.39,0.06-2.56,0.18-3.53c0.12-0.97,0.31-1.75,0.58-2.34c0.27-0.59,0.58-1.01,0.94-1.26
			c0.36-0.25,0.78-0.37,1.26-0.37c0.6,0,1.51,0.29,2.74,0.85c1.23,0.57,2.84,1.2,4.85,1.89c2,0.69,4.44,1.33,7.31,1.89
			c2.87,0.57,6.31,0.85,10.32,0.85c3.47,0,6.63-0.3,9.47-0.89c2.84-0.6,5.25-1.55,7.22-2.86c1.97-1.31,3.5-2.96,4.58-4.94
			c1.08-1.98,1.62-4.36,1.62-7.13c0-2.38-0.45-4.49-1.35-6.35c-0.9-1.86-2.3-3.43-4.22-4.72c-1.92-1.29-4.4-2.25-7.45-2.9
			c-3.05-0.64-6.76-0.97-11.13-0.97c-3.47,0-6.63,0.15-9.47,0.45c-2.84,0.3-5.52,0.44-8.03,0.44c-1.74,0-2.98-0.36-3.72-1.08
			c-0.75-0.72-1.12-2.04-1.12-3.97v-41.76c0-1.98,0.46-3.4,1.39-4.27c0.93-0.87,2.41-1.3,4.44-1.3h55.01c0.54,0,1.05,0.15,1.53,0.44
			c0.48,0.3,0.88,0.77,1.21,1.41c0.33,0.64,0.57,1.5,0.72,2.56c0.15,1.07,0.22,2.34,0.22,3.83c0,2.97-0.31,5.13-0.94,6.46
			c-0.63,1.34-1.54,2.01-2.74,2.01H204.8v20.58c2.09-0.2,4.17-0.32,6.24-0.37c2.06-0.05,4.23-0.07,6.51-0.07
			c6.28,0,11.86,0.61,16.74,1.82c4.87,1.21,8.97,3,12.29,5.35c3.32,2.35,5.85,5.28,7.58,8.77c1.73,3.49,2.6,7.54,2.6,12.15
			C256.76,579.43,255.67,584.07,253.48,588.16z M349.23,577.79c-1.5,6.19-3.93,11.47-7.31,15.83c-3.38,4.36-7.78,7.7-13.19,10.03
			c-5.42,2.33-12.04,3.49-19.88,3.49c-7.96,0-14.54-1.13-19.74-3.38c-5.21-2.25-9.33-5.5-12.38-9.73
			c-3.05-4.24-5.19-9.41-6.42-15.53c-1.23-6.12-1.84-13.04-1.84-20.76c0-7.63,0.76-14.55,2.29-20.77c1.53-6.22,3.98-11.5,7.36-15.86
			c3.38-4.36,7.78-7.7,13.19-10.03c5.41-2.33,12.01-3.49,19.79-3.49c7.96,0,14.55,1.13,19.79,3.38c5.23,2.25,9.38,5.5,12.43,9.73
			c3.05,4.24,5.17,9.41,6.37,15.53c1.2,6.12,1.79,13.04,1.79,20.77C351.48,564.67,350.73,571.6,349.23,577.79z M399.67,605.96
			c-0.06,0.31-0.14,0.56-0.25,0.75c-0.11,0.19-0.23,0.32-0.36,0.4c-0.14,0.08-0.29,0.12-0.47,0.12h-20.87
			c-0.16,0-0.3-0.04-0.44-0.12c-0.14-0.08-0.26-0.21-0.36-0.4c-0.11-0.18-0.19-0.43-0.25-0.75c-0.06-0.31-0.09-0.7-0.09-1.15
			c0-0.47,0.02-0.86,0.07-1.17c0.05-0.31,0.13-0.57,0.23-0.76c0.11-0.19,0.23-0.33,0.36-0.42c0.14-0.09,0.29-0.13,0.47-0.13h7.05
			v-20.38l-6.08,2.78c-0.45,0.18-0.81,0.29-1.1,0.33c-0.28,0.04-0.51-0.01-0.67-0.14c-0.17-0.14-0.28-0.38-0.34-0.71
			c-0.06-0.34-0.09-0.82-0.09-1.43c0-0.39,0.01-0.71,0.03-0.96c0.02-0.25,0.07-0.46,0.15-0.64c0.08-0.18,0.18-0.32,0.32-0.43
			c0.14-0.11,0.32-0.23,0.56-0.36l8.13-4.36c0.1-0.06,0.22-0.12,0.37-0.16c0.15-0.04,0.34-0.07,0.57-0.1
			c0.23-0.02,0.54-0.04,0.92-0.05c0.38-0.01,0.87-0.01,1.48-0.01c0.74,0,1.34,0.01,1.8,0.04c0.46,0.02,0.8,0.06,1.04,0.12
			c0.23,0.06,0.39,0.13,0.47,0.23c0.08,0.1,0.12,0.22,0.12,0.36v25.88h6.17c0.18,0,0.34,0.04,0.48,0.13
			c0.15,0.09,0.27,0.23,0.38,0.42s0.18,0.45,0.23,0.76c0.05,0.31,0.07,0.71,0.07,1.17C399.76,605.26,399.73,605.64,399.67,605.96z
			 M429.71,594.1c-0.16,1.36-0.45,2.7-0.89,4.01c-0.44,1.31-1.04,2.55-1.81,3.73c-0.77,1.18-1.76,2.21-2.98,3.09
			c-1.22,0.88-2.7,1.58-4.44,2.09c-1.74,0.52-3.81,0.77-6.18,0.77c-0.84,0-1.67-0.05-2.5-0.14c-0.83-0.1-1.58-0.22-2.27-0.36
			c-0.68-0.15-1.26-0.3-1.74-0.46c-0.48-0.16-0.82-0.33-1.04-0.5c-0.21-0.17-0.37-0.42-0.47-0.74c-0.1-0.32-0.15-0.77-0.15-1.35
			c0-0.53,0.01-0.96,0.04-1.28c0.03-0.32,0.09-0.57,0.18-0.75c0.09-0.18,0.19-0.29,0.32-0.35c0.13-0.06,0.28-0.09,0.45-0.09
			c0.23,0,0.57,0.06,0.99,0.17c0.43,0.11,0.95,0.24,1.56,0.39c0.61,0.14,1.31,0.27,2.09,0.39c0.78,0.11,1.65,0.17,2.6,0.17
			c1.64,0,3.02-0.24,4.15-0.73c1.13-0.48,2.05-1.14,2.75-1.96c0.7-0.82,1.22-1.77,1.55-2.85c0.33-1.08,0.52-2.22,0.56-3.41
			c-0.9,0.47-1.98,0.87-3.24,1.22c-1.27,0.35-2.72,0.52-4.36,0.52c-2.01,0-3.71-0.22-5.12-0.65c-1.4-0.44-2.54-1.07-3.42-1.89
			c-0.88-0.82-1.52-1.82-1.91-3c-0.4-1.18-0.6-2.51-0.6-3.99c0-1.56,0.28-3,0.85-4.32c0.56-1.32,1.4-2.45,2.51-3.41
			c1.11-0.96,2.49-1.71,4.15-2.24c1.66-0.53,3.58-0.8,5.76-0.8c1.75,0,3.29,0.17,4.6,0.51c1.32,0.34,2.45,0.82,3.39,1.45
			c0.94,0.63,1.73,1.39,2.37,2.29c0.63,0.9,1.13,1.89,1.49,2.99c0.36,1.1,0.61,2.28,0.76,3.56c0.15,1.27,0.22,2.61,0.22,3.99
			C429.94,591.42,429.86,592.73,429.71,594.1z M432.77,562.96c0,0.57-0.24,1.01-0.73,1.33c-0.49,0.32-1.26,0.56-2.31,0.7
			c-1.05,0.14-2.6,0.21-4.65,0.21c-2.2,0-3.8-0.07-4.8-0.21c-1-0.14-1.71-0.37-2.12-0.7c-0.42-0.32-0.62-0.77-0.62-1.33v-4.31
			c-2.69,2.39-5.75,4.24-9.19,5.58c-3.44,1.33-7.26,2-11.46,2c-3.47,0-6.65-0.37-9.56-1.12c-2.91-0.75-5.42-1.86-7.54-3.33
			c-2.12-1.48-3.77-3.31-4.94-5.49c-1.17-2.18-1.76-4.73-1.76-7.64c0-3.15,0.74-5.89,2.23-8.22c1.49-2.32,3.71-4.24,6.67-5.76
			c2.95-1.52,6.63-2.64,11.02-3.37c4.4-0.73,9.5-1.09,15.31-1.09h6.37v-3.27c0-1.7-0.21-3.18-0.62-4.46
			c-0.42-1.27-1.1-2.33-2.05-3.18c-0.95-0.85-2.22-1.47-3.81-1.88c-1.59-0.4-3.55-0.61-5.9-0.61c-3.08,0-5.82,0.28-8.24,0.85
			s-4.55,1.19-6.41,1.88c-1.86,0.69-3.41,1.31-4.65,1.88c-1.24,0.57-2.26,0.85-3.04,0.85c-0.54,0-1.01-0.14-1.43-0.42
			c-0.42-0.28-0.76-0.69-1.03-1.21c-0.27-0.53-0.48-1.17-0.62-1.94c-0.15-0.77-0.22-1.62-0.22-2.55c0-1.25,0.12-2.24,0.37-2.97
			c0.24-0.73,0.71-1.39,1.39-1.97c0.68-0.59,1.88-1.23,3.59-1.94c1.71-0.71,3.71-1.36,6.01-1.97c2.29-0.61,4.8-1.1,7.51-1.49
			c2.71-0.38,5.51-0.58,8.39-0.58c5.13,0,9.51,0.42,13.15,1.24c3.64,0.83,6.63,2.1,8.97,3.82c2.34,1.72,4.05,3.93,5.13,6.64
			c1.07,2.71,1.61,5.92,1.61,9.64V562.96z M459.51,579.82c-0.04,0.35-0.09,0.67-0.16,0.97c-0.07,0.3-0.16,0.58-0.28,0.85
			c-0.12,0.27-0.25,0.55-0.41,0.86l-12.45,23.89c-0.12,0.21-0.27,0.38-0.45,0.51c-0.19,0.13-0.44,0.23-0.77,0.3
			c-0.33,0.07-0.76,0.12-1.27,0.14c-0.52,0.02-1.15,0.04-1.92,0.04c-1.03,0-1.85-0.03-2.46-0.09c-0.6-0.06-1.05-0.14-1.33-0.27
			c-0.28-0.12-0.43-0.27-0.45-0.46c-0.02-0.19,0.05-0.42,0.2-0.69l13.39-24.45h-15.9c-0.41,0-0.72-0.22-0.92-0.67
			c-0.2-0.44-0.31-1.15-0.31-2.12c0-0.48,0.03-0.9,0.09-1.25c0.06-0.35,0.14-0.63,0.25-0.86s0.23-0.39,0.38-0.48
			c0.15-0.1,0.32-0.15,0.51-0.15h22.48c0.35,0,0.64,0.03,0.88,0.08c0.23,0.06,0.42,0.18,0.56,0.38c0.14,0.19,0.24,0.47,0.31,0.82
			c0.07,0.36,0.1,0.82,0.1,1.4C459.57,579.06,459.55,579.47,459.51,579.82z M488.91,605.96c-0.06,0.31-0.14,0.56-0.25,0.75
			c-0.11,0.19-0.23,0.32-0.36,0.4c-0.14,0.08-0.29,0.12-0.47,0.12h-20.87c-0.16,0-0.3-0.04-0.44-0.12c-0.14-0.08-0.26-0.21-0.36-0.4
			c-0.11-0.18-0.19-0.43-0.25-0.75c-0.06-0.31-0.09-0.7-0.09-1.15c0-0.47,0.02-0.86,0.07-1.17c0.05-0.31,0.13-0.57,0.23-0.76
			c0.11-0.19,0.23-0.33,0.36-0.42c0.14-0.09,0.29-0.13,0.47-0.13H474v-20.38l-6.08,2.78c-0.45,0.18-0.81,0.29-1.1,0.33
			c-0.28,0.04-0.51-0.01-0.67-0.14c-0.17-0.14-0.28-0.38-0.34-0.71c-0.06-0.34-0.09-0.82-0.09-1.43c0-0.39,0.01-0.71,0.03-0.96
			c0.02-0.25,0.07-0.46,0.15-0.64c0.08-0.18,0.18-0.32,0.32-0.43c0.14-0.11,0.32-0.23,0.56-0.36l8.13-4.36
			c0.1-0.06,0.22-0.12,0.37-0.16c0.15-0.04,0.34-0.07,0.57-0.1c0.23-0.02,0.54-0.04,0.92-0.05c0.38-0.01,0.87-0.01,1.48-0.01
			c0.74,0,1.34,0.01,1.8,0.04c0.46,0.02,0.8,0.06,1.04,0.12c0.23,0.06,0.39,0.13,0.47,0.23c0.08,0.1,0.12,0.22,0.12,0.36v25.88h6.17
			c0.18,0,0.34,0.04,0.48,0.13c0.15,0.09,0.27,0.23,0.38,0.42c0.11,0.19,0.18,0.45,0.23,0.76c0.05,0.31,0.07,0.71,0.07,1.17
			C489,605.26,488.97,605.64,488.91,605.96z M498.4,565.05c-1.2-0.1-2.14-0.25-2.82-0.46c-0.68-0.2-1.17-0.45-1.46-0.76
			c-0.29-0.3-0.44-0.66-0.44-1.06v-30.87c0-2.63-0.23-4.69-0.7-6.19c-0.46-1.5-1.14-2.78-2.01-3.85c-0.88-1.07-2.01-1.9-3.41-2.49
			c-1.39-0.59-3.02-0.88-4.87-0.88c-2.34,0-4.71,0.71-7.11,2.12c-2.39,1.42-4.88,3.48-7.47,6.19v35.96c0,0.4-0.15,0.76-0.44,1.06
			c-0.29,0.3-0.79,0.56-1.5,0.76c-0.71,0.2-1.65,0.35-2.82,0.46c-1.17,0.1-2.66,0.15-4.47,0.15c-1.81,0-3.3-0.05-4.47-0.15
			c-1.17-0.1-2.11-0.25-2.82-0.46c-0.71-0.2-1.21-0.45-1.5-0.76c-0.29-0.3-0.44-0.66-0.44-1.06v-54.1c0-0.4,0.12-0.76,0.37-1.06
			c0.24-0.3,0.68-0.56,1.32-0.76c0.63-0.2,1.45-0.35,2.45-0.45c1-0.1,2.26-0.15,3.77-0.15c1.56,0,2.86,0.05,3.88,0.15
			c1.03,0.1,1.82,0.25,2.38,0.45c0.56,0.2,0.96,0.46,1.21,0.76c0.24,0.3,0.37,0.66,0.37,1.06v6.25c3.61-3.23,7.29-5.66,11.02-7.28
			c3.74-1.62,7.63-2.42,11.68-2.42c4.44,0,8.19,0.61,11.24,1.82c3.05,1.21,5.52,2.86,7.4,4.94s3.24,4.52,4.07,7.31
			c0.83,2.79,1.25,6.15,1.25,10.07v33.42c0,0.4-0.15,0.76-0.44,1.06c-0.29,0.3-0.78,0.56-1.47,0.76c-0.68,0.2-1.62,0.35-2.82,0.46
			c-1.2,0.1-2.67,0.15-4.43,0.15C501.1,565.2,499.6,565.15,498.4,565.05z M520.37,597.02c-0.21,0.37-0.55,0.56-1.02,0.56h-12.16
			c-0.49,0-0.84-0.19-1.05-0.57c-0.21-0.38-0.32-1.03-0.32-1.95c0-0.9,0.11-1.54,0.32-1.91c0.21-0.37,0.57-0.56,1.05-0.56h12.16
			c0.23,0,0.43,0.04,0.6,0.12c0.17,0.08,0.31,0.22,0.42,0.41c0.12,0.19,0.2,0.45,0.25,0.78s0.07,0.71,0.07,1.16
			C520.69,595.99,520.58,596.64,520.37,597.02z M562.63,605.84c-0.05,0.33-0.12,0.6-0.22,0.81c-0.1,0.21-0.22,0.36-0.38,0.45
			c-0.16,0.09-0.33,0.13-0.53,0.13h-21.75c-0.43,0-0.8-0.03-1.11-0.1c-0.31-0.06-0.57-0.19-0.76-0.37s-0.34-0.46-0.42-0.81
			c-0.09-0.36-0.13-0.81-0.13-1.38c0-0.53,0.03-0.99,0.09-1.37c0.06-0.38,0.17-0.72,0.32-1.02c0.16-0.3,0.36-0.59,0.6-0.87
			c0.24-0.28,0.56-0.59,0.95-0.93l6.55-5.81c1.31-1.13,2.36-2.16,3.16-3.09c0.8-0.93,1.42-1.77,1.87-2.54s0.76-1.47,0.92-2.12
			c0.17-0.65,0.25-1.26,0.25-1.84c0-0.53-0.1-1.04-0.31-1.51c-0.21-0.48-0.51-0.89-0.91-1.25c-0.4-0.36-0.9-0.63-1.51-0.84
			c-0.61-0.2-1.32-0.3-2.13-0.3c-1.15,0-2.17,0.12-3.06,0.36c-0.89,0.24-1.67,0.51-2.34,0.81s-1.23,0.57-1.68,0.82
			c-0.45,0.25-0.8,0.37-1.05,0.37c-0.18,0-0.33-0.05-0.45-0.15c-0.13-0.1-0.23-0.26-0.31-0.48c-0.08-0.23-0.14-0.53-0.19-0.91
			c-0.05-0.38-0.07-0.84-0.07-1.39c0-0.37,0.01-0.68,0.04-0.93c0.03-0.25,0.07-0.47,0.13-0.65c0.06-0.18,0.14-0.35,0.23-0.48
			c0.1-0.14,0.27-0.3,0.51-0.5c0.24-0.19,0.69-0.44,1.34-0.74c0.65-0.3,1.46-0.59,2.41-0.87c0.95-0.28,2.01-0.52,3.16-0.71
			c1.15-0.19,2.35-0.29,3.6-0.29c1.97,0,3.69,0.21,5.16,0.62c1.47,0.41,2.69,0.98,3.67,1.72c0.97,0.73,1.7,1.61,2.18,2.61
			c0.48,1.01,0.72,2.09,0.72,3.26c0,1.02-0.12,2.02-0.35,3c-0.23,0.98-0.72,2.05-1.46,3.18c-0.74,1.14-1.78,2.4-3.13,3.78
			c-1.34,1.38-3.13,2.98-5.35,4.8l-4.41,3.75h14.91c0.19,0,0.38,0.05,0.54,0.15c0.17,0.1,0.31,0.25,0.42,0.45
			c0.12,0.2,0.2,0.47,0.26,0.8c0.06,0.33,0.09,0.72,0.09,1.17C562.7,605.11,562.68,605.51,562.63,605.84z M592.48,598.23
			c-0.49,2.02-1.28,3.74-2.38,5.15c-1.1,1.42-2.53,2.51-4.3,3.27c-1.76,0.76-3.92,1.14-6.48,1.14c-2.59,0-4.74-0.37-6.43-1.1
			c-1.7-0.73-3.04-1.79-4.03-3.17c-0.99-1.38-1.69-3.07-2.09-5.06c-0.4-1.99-0.6-4.25-0.6-6.77c0-2.48,0.25-4.74,0.74-6.77
			c0.5-2.03,1.3-3.75,2.4-5.17c1.1-1.42,2.53-2.51,4.3-3.27c1.76-0.76,3.91-1.14,6.45-1.14c2.59,0,4.74,0.37,6.45,1.1
			c1.7,0.73,3.05,1.79,4.05,3.17c0.99,1.38,1.69,3.07,2.08,5.06c0.39,1.99,0.58,4.25,0.58,6.77
			C593.21,593.95,592.96,596.21,592.48,598.23z M592.53,547.8c-1.47,3.8-3.69,7.08-6.67,9.82c-2.98,2.75-6.72,4.87-11.21,6.37
			c-4.49,1.49-9.74,2.24-15.75,2.24c-5.81,0-10.87-0.67-15.16-2c-4.3-1.33-7.86-3.27-10.69-5.82c-2.83-2.55-4.93-5.68-6.3-9.4
			c-1.37-3.72-2.05-7.97-2.05-12.74c0-4.61,0.74-8.83,2.23-12.65c1.49-3.82,3.72-7.1,6.7-9.82c2.98-2.73,6.7-4.84,11.17-6.34
			c4.47-1.5,9.71-2.24,15.71-2.24c5.86,0,10.94,0.66,15.24,1.97c4.3,1.31,7.85,3.24,10.66,5.79c2.81,2.55,4.9,5.68,6.26,9.4
			c1.37,3.72,2.05,7.99,2.05,12.8C594.73,539.79,594,544,592.53,547.8z M622.12,605.84c-0.05,0.33-0.12,0.6-0.22,0.81
			c-0.1,0.21-0.22,0.36-0.38,0.45c-0.16,0.09-0.33,0.13-0.53,0.13h-21.75c-0.43,0-0.8-0.03-1.11-0.1c-0.31-0.06-0.56-0.19-0.76-0.37
			c-0.2-0.18-0.34-0.46-0.42-0.81c-0.09-0.36-0.13-0.81-0.13-1.38c0-0.53,0.03-0.99,0.09-1.37c0.06-0.38,0.17-0.72,0.32-1.02
			c0.16-0.3,0.36-0.59,0.6-0.87c0.24-0.28,0.56-0.59,0.95-0.93l6.55-5.81c1.31-1.13,2.36-2.16,3.16-3.09
			c0.8-0.93,1.42-1.77,1.87-2.54c0.45-0.77,0.76-1.47,0.92-2.12c0.17-0.65,0.25-1.26,0.25-1.84c0-0.53-0.1-1.04-0.31-1.51
			c-0.2-0.48-0.51-0.89-0.91-1.25c-0.4-0.36-0.9-0.63-1.51-0.84c-0.61-0.2-1.32-0.3-2.13-0.3c-1.15,0-2.17,0.12-3.05,0.36
			c-0.89,0.24-1.67,0.51-2.34,0.81c-0.67,0.3-1.23,0.57-1.68,0.82c-0.45,0.25-0.8,0.37-1.05,0.37c-0.18,0-0.33-0.05-0.45-0.15
			c-0.13-0.1-0.23-0.26-0.31-0.48c-0.08-0.23-0.14-0.53-0.19-0.91c-0.05-0.38-0.07-0.84-0.07-1.39c0-0.37,0.01-0.68,0.04-0.93
			c0.03-0.25,0.07-0.47,0.13-0.65c0.06-0.18,0.14-0.35,0.23-0.48c0.1-0.14,0.27-0.3,0.51-0.5c0.24-0.19,0.69-0.44,1.34-0.74
			c0.65-0.3,1.46-0.59,2.41-0.87c0.96-0.28,2.01-0.52,3.16-0.71c1.15-0.19,2.35-0.29,3.6-0.29c1.97,0,3.69,0.21,5.16,0.62
			c1.47,0.41,2.69,0.98,3.67,1.72c0.97,0.73,1.7,1.61,2.18,2.61c0.48,1.01,0.72,2.09,0.72,3.26c0,1.02-0.12,2.02-0.35,3
			c-0.23,0.98-0.72,2.05-1.46,3.18c-0.74,1.14-1.78,2.4-3.13,3.78c-1.34,1.38-3.13,2.98-5.35,4.8l-4.41,3.75h14.91
			c0.19,0,0.37,0.05,0.54,0.15c0.17,0.1,0.31,0.25,0.42,0.45c0.12,0.2,0.21,0.47,0.26,0.8c0.06,0.33,0.09,0.72,0.09,1.17
			C622.19,605.11,622.17,605.51,622.12,605.84z M651.5,605.96c-0.06,0.31-0.14,0.56-0.25,0.75c-0.11,0.19-0.23,0.32-0.36,0.4
			c-0.14,0.08-0.29,0.12-0.47,0.12h-20.87c-0.16,0-0.3-0.04-0.44-0.12c-0.14-0.08-0.26-0.21-0.36-0.4
			c-0.11-0.18-0.19-0.43-0.25-0.75c-0.06-0.31-0.09-0.7-0.09-1.15c0-0.47,0.02-0.86,0.07-1.17c0.05-0.31,0.13-0.57,0.23-0.76
			s0.23-0.33,0.36-0.42c0.14-0.09,0.29-0.13,0.47-0.13h7.04v-20.38l-6.08,2.78c-0.45,0.18-0.81,0.29-1.1,0.33
			c-0.28,0.04-0.51-0.01-0.67-0.14c-0.17-0.14-0.28-0.38-0.34-0.71c-0.06-0.34-0.09-0.82-0.09-1.43c0-0.39,0.01-0.71,0.03-0.96
			c0.02-0.25,0.07-0.46,0.15-0.64c0.08-0.18,0.18-0.32,0.32-0.43c0.14-0.11,0.32-0.23,0.55-0.36l8.13-4.36
			c0.1-0.06,0.22-0.12,0.36-0.16c0.15-0.04,0.34-0.07,0.57-0.1s0.54-0.04,0.92-0.05c0.38-0.01,0.87-0.01,1.48-0.01
			c0.74,0,1.34,0.01,1.8,0.04c0.46,0.02,0.8,0.06,1.04,0.12c0.23,0.06,0.39,0.13,0.47,0.23c0.08,0.1,0.12,0.22,0.12,0.36v25.88h6.17
			c0.18,0,0.34,0.04,0.48,0.13c0.15,0.09,0.27,0.23,0.38,0.42s0.18,0.45,0.23,0.76c0.05,0.31,0.07,0.71,0.07,1.17
			C651.59,605.26,651.56,605.64,651.5,605.96z M651.72,555.62c-1.39,2.35-3.36,4.3-5.9,5.88c-2.54,1.58-5.54,2.76-9.01,3.55
			c-3.47,0.79-7.23,1.18-11.28,1.18c-2.44,0-4.77-0.15-7-0.45c-2.22-0.3-4.21-0.69-5.97-1.15c-1.76-0.46-3.22-0.94-4.4-1.43
			c-1.17-0.48-2.03-0.94-2.56-1.36c-0.54-0.42-0.95-1.09-1.24-2c-0.29-0.91-0.44-2.25-0.44-4.03c0-1.17,0.05-2.11,0.15-2.82
			c0.1-0.71,0.24-1.27,0.44-1.7c0.19-0.42,0.44-0.71,0.73-0.85c0.29-0.14,0.66-0.21,1.1-0.21c0.54,0,1.33,0.25,2.38,0.76
			c1.05,0.51,2.36,1.06,3.92,1.67c1.56,0.61,3.38,1.17,5.46,1.7c2.08,0.53,4.43,0.79,7.07,0.79c1.66,0,3.14-0.14,4.43-0.42
			c1.29-0.28,2.42-0.69,3.37-1.21c0.95-0.53,1.67-1.19,2.16-2c0.49-0.81,0.73-1.74,0.73-2.79c0-1.21-0.45-2.25-1.36-3.12
			c-0.9-0.87-2.1-1.63-3.59-2.27c-1.49-0.65-3.18-1.25-5.06-1.82c-1.88-0.56-3.81-1.19-5.79-1.88c-1.98-0.69-3.91-1.47-5.79-2.36
			c-1.88-0.89-3.57-1.98-5.05-3.27c-1.49-1.29-2.69-2.85-3.59-4.67c-0.9-1.82-1.35-4-1.35-6.55c0-2.59,0.61-4.96,1.83-7.13
			c1.22-2.16,2.98-4.01,5.27-5.55c2.3-1.54,5.09-2.73,8.39-3.58c3.3-0.85,7-1.27,11.1-1.27c2.05,0,4.04,0.12,5.97,0.36
			c1.93,0.24,3.67,0.55,5.24,0.91c1.56,0.36,2.88,0.76,3.95,1.18c1.07,0.42,1.84,0.79,2.31,1.09c0.46,0.3,0.79,0.61,0.99,0.91
			c0.19,0.3,0.34,0.67,0.44,1.09c0.1,0.42,0.18,0.95,0.26,1.58c0.07,0.63,0.11,1.41,0.11,2.34c0,1.09-0.04,1.98-0.11,2.67
			c-0.07,0.69-0.2,1.23-0.37,1.64c-0.17,0.41-0.4,0.68-0.7,0.82c-0.29,0.14-0.64,0.21-1.03,0.21c-0.44,0-1.12-0.21-2.05-0.64
			c-0.93-0.42-2.09-0.88-3.48-1.36c-1.39-0.48-3-0.94-4.84-1.36c-1.83-0.42-3.92-0.64-6.26-0.64c-1.66,0-3.1,0.14-4.32,0.42
			c-1.22,0.28-2.22,0.69-3,1.21c-0.78,0.53-1.37,1.14-1.76,1.85c-0.39,0.71-0.59,1.47-0.59,2.27c0,1.25,0.46,2.3,1.39,3.15
			c0.93,0.85,2.15,1.6,3.66,2.24c1.51,0.65,3.23,1.25,5.16,1.82c1.93,0.57,3.88,1.18,5.86,1.85c1.98,0.67,3.93,1.45,5.86,2.34
			c1.93,0.89,3.65,1.98,5.16,3.27c1.51,1.29,2.73,2.84,3.66,4.64c0.93,1.8,1.39,3.93,1.39,6.4
			C653.81,550.57,653.11,553.27,651.72,555.62z"/>
	</g>
	<g>
		<g>
			<g>
				<path class="st3" d="M798.89,281.94h6.37v-63.69h33.85v-5.92h-80.34v68.91c0,0-1.73,6.73,1.62,12.53
					c3.37,5.8,4.41,8.24,9.97,10.9c5.56,2.78,7.64,3.13,14.03,3.13c6.49,0,38.03,0,38.03,0s5.32,0,8.69-1.28
					c3.48-1.28,5.8-2.67,7.76-4.75c1.98-1.98,3.37-4.76,3.37-4.76s2.54,3.14,4.29,4.76c1.62,1.74,4.41,3.48,6.6,4.64
					c2.2,1.16,7.77,1.62,10.44,1.62c2.66,0,41.27,0,41.27,0s7.19,0.46,14.26-3.59c7.07-3.95,8.46-10.21,9.16-14.27
					c0.7-4.17,0.7-4.87,0.7-6.15c0-1.28,0-6.5,0-6.5l-11.71-12.64l-27.71-29.82l-4.64,3.94l37.79,40.84c0,0-0.23,7.31-0.7,9.75
					c-0.58,2.44-2.55,6.61-5.33,8.35c-2.89,1.86-5.68,3.72-11.48,3.83c-5.91,0.11-43.01,0.11-43.01,0.11s-6.49-0.69-9.16-2.9
					c-2.67-2.2-4.64-3.94-5.8-6.96c-1.16-3.02-1.62-6.38-1.62-6.38h-6.49c0,0-1.27,6.38-3.02,8.93c-1.86,2.67-6.03,6.04-10.44,6.73
					c-4.52,0.58-24.11,0.58-24.11,0.58h-18.9c0,0-8-0.58-11.01-3.59c-3.13-3.02-5.1-5.22-6.02-9.28
					c-0.82-4.06-0.58-12.64-0.58-12.64v-42.12v-16.01h33.85V281.94z M703.95,447.15c0,1.74-0.45,3.36-1.38,4.99
					c-0.93,1.74-2.21,3.13-3.83,4.29c-1.86,1.28-3.94,2.2-6.26,2.9c-2.43,0.7-5.33,1.05-8.81,1.05c-3.59,0-6.84-0.24-9.73-0.82
					c-2.9-0.58-5.92-1.51-8.93-2.67v-7.31h0.58c2.55,1.86,5.45,3.25,8.81,4.29c3.36,1.05,6.49,1.51,9.39,1.51
					c4.17,0,7.42-0.69,9.73-1.97c2.32-1.39,3.48-3.25,3.48-5.45c0-1.98-0.58-3.37-1.62-4.3c-1.15-0.93-2.78-1.63-5.09-2.21
					c-1.62-0.34-3.48-0.7-5.45-0.93c-1.97-0.23-4.05-0.58-6.25-0.93c-4.53-0.81-7.77-2.32-9.97-4.29c-2.21-1.97-3.25-4.52-3.25-7.77
					c0-3.6,1.73-6.61,5.33-9.05c3.59-2.32,8.12-3.48,13.56-3.48c3.59,0,6.84,0.34,9.85,0.93c2.89,0.58,5.57,1.27,7.77,2.2v6.84
					h-0.46c-1.86-1.39-4.42-2.55-7.54-3.48c-3.13-1.04-6.37-1.39-9.62-1.39c-3.59,0-6.49,0.58-8.58,1.86
					c-2.21,1.28-3.36,3.01-3.36,4.99c0,1.86,0.58,3.25,1.62,4.3c1.16,1.04,3.02,1.85,5.8,2.43c1.38,0.23,3.48,0.58,6.14,1.05
					c2.66,0.35,4.87,0.7,6.72,1.16c3.83,0.81,6.61,2.2,8.47,3.94C703.02,441.59,703.95,444.02,703.95,447.15L703.95,447.15z
					 M635.9,420.81c2.09,1.98,3.59,4.41,4.75,7.19c1.04,2.9,1.62,6.15,1.62,9.75c0,3.6-0.58,6.85-1.73,9.63
					c-1.05,2.9-2.67,5.33-4.64,7.19c-2.09,1.98-4.53,3.48-7.42,4.53c-2.78,0.93-6.03,1.39-9.62,1.39c-3.6,0-6.84-0.46-9.74-1.51
					c-2.89-1.04-5.33-2.44-7.42-4.41c-1.97-1.97-3.6-4.29-4.63-7.19c-1.16-2.78-1.74-6.03-1.74-9.63c0-3.6,0.58-6.73,1.74-9.63
					c1.04-2.79,2.55-5.22,4.63-7.31c2.09-1.86,4.52-3.37,7.42-4.41c3.01-0.93,6.14-1.51,9.74-1.51c3.59,0,6.84,0.58,9.74,1.51
					C631.37,417.45,633.81,418.96,635.9,420.81L635.9,420.81z M635.21,437.75c0-5.69-1.39-10.09-4.41-13.23
					c-2.89-3.02-6.84-4.64-11.94-4.64c-5.1,0-9.17,1.62-12.06,4.64c-3.02,3.14-4.41,7.54-4.41,13.23c0,5.69,1.51,10.09,4.41,13.22
					c3.01,3.02,7.07,4.52,12.06,4.52c4.98,0,8.92-1.5,11.94-4.52C633.81,447.85,635.21,443.44,635.21,437.75L635.21,437.75z
					 M577.82,459.68h-31.88v-43.86h6.73v38.64h25.15V459.68z M524.96,459.68h-8.7l-16.8-17.52h-9.51v17.52h-6.73v-43.86h14.15
					c3.13,0,5.56,0.12,7.65,0.47c2.08,0.35,3.83,1.04,5.45,1.86c1.86,1.04,3.25,2.32,4.29,3.83c1.04,1.51,1.62,3.48,1.62,5.8
					c0,3.13-0.93,5.8-2.78,7.89c-1.86,2.09-4.4,3.71-7.53,4.75L524.96,459.68z M509.31,428.13c0-1.28-0.23-2.32-0.7-3.37
					c-0.58-0.93-1.39-1.73-2.55-2.44c-1.04-0.58-2.2-0.93-3.48-1.16c-1.27-0.23-2.89-0.35-4.75-0.35h-7.89v16.59h6.84
					c2.09,0,3.94-0.24,5.57-0.58c1.51-0.23,2.9-0.93,3.94-1.74c1.04-0.82,1.86-1.74,2.32-2.9
					C509.08,431.14,509.31,429.75,509.31,428.13L509.31,428.13z M461.2,459.68h-7.07l-4.99-12.3h-21.91l-4.87,12.3h-6.84
					l18.32-43.86h9.04L461.2,459.68z M447.05,442.39l-8.81-21.46l-8.93,21.46H447.05z M397.55,456.43
					c-1.27,0.46-2.43,0.93-3.36,1.39c-1.04,0.35-2.32,0.81-3.94,1.28c-1.39,0.35-2.9,0.7-4.52,0.93c-1.62,0.23-3.36,0.35-5.33,0.35
					c-3.71,0-6.96-0.35-9.97-1.28c-3.02-0.93-5.56-2.32-7.76-4.17c-2.21-1.86-3.94-4.3-5.1-7.08c-1.28-2.9-1.86-6.26-1.86-10.09
					c0-3.6,0.58-6.85,1.74-9.63c1.16-2.9,2.9-5.33,5.1-7.19c2.09-1.98,4.75-3.37,7.76-4.42c3.01-1.04,6.38-1.5,10.09-1.5
					c2.78,0,5.45,0.34,8.12,0.81c2.78,0.58,5.79,1.62,9.04,3.02v6.96h-0.46c-2.78-1.98-5.56-3.48-8.34-4.41
					c-2.67-0.92-5.69-1.39-8.7-1.39c-2.55,0-4.87,0.35-6.95,1.04c-2.09,0.7-3.83,1.86-5.45,3.36c-1.62,1.51-2.78,3.37-3.71,5.57
					c-0.81,2.2-1.28,4.88-1.28,7.77c0,3.13,0.46,5.8,1.51,8.01c0.92,2.21,2.2,3.94,3.71,5.33c1.51,1.51,3.36,2.55,5.45,3.25
					c2.2,0.7,4.41,1.04,6.72,1.04c3.25,0,6.26-0.46,9.16-1.39c2.78-1.04,5.45-2.44,7.88-4.41h0.46V456.43z M297.63,420.81
					c2.08,1.98,3.71,4.41,4.75,7.19c1.16,2.9,1.62,6.15,1.62,9.75c0,3.6-0.58,6.85-1.62,9.63c-1.16,2.9-2.67,5.33-4.75,7.19
					c-2.09,1.98-4.52,3.48-7.31,4.53c-2.89,0.93-6.14,1.39-9.74,1.39c-3.59,0-6.72-0.46-9.73-1.51c-2.9-1.04-5.33-2.44-7.31-4.41
					c-2.08-1.97-3.59-4.29-4.75-7.19c-1.04-2.78-1.62-6.03-1.62-9.63c0-3.6,0.58-6.73,1.62-9.63c1.04-2.79,2.67-5.22,4.75-7.31
					c1.98-1.86,4.41-3.37,7.42-4.41c2.9-0.93,6.15-1.51,9.62-1.51c3.6,0,6.85,0.58,9.74,1.51
					C293.22,417.45,295.66,418.96,297.63,420.81L297.63,420.81z M297.05,437.75c0-5.69-1.51-10.09-4.41-13.23
					c-2.9-3.02-6.96-4.64-12.06-4.64c-5.1,0-9.16,1.62-12.06,4.64c-2.9,3.14-4.4,7.54-4.4,13.23c0,5.69,1.5,10.09,4.52,13.22
					c2.9,3.02,6.96,4.52,11.94,4.52c4.99,0,9.04-1.5,12.06-4.52C295.54,447.85,297.05,443.44,297.05,437.75L297.05,437.75z
					 M238.04,459.68h-7.18l-4.99-12.3h-21.79l-4.99,12.3h-6.84l18.43-43.86h8.92L238.04,459.68z M223.78,442.39l-8.81-21.46
					l-8.8,21.46H223.78z M229.35,400.98c-0.23,3.02-1.16,5.22-2.67,6.73c-1.51,1.5-3.48,2.32-5.91,2.32c-1.27,0-2.43-0.23-3.48-0.58
					c-1.04-0.35-1.97-0.93-2.89-1.63c-1.04-0.93-1.97-1.5-2.67-1.97c-0.81-0.35-1.62-0.58-2.44-0.58c-1.16,0-2.09,0.46-2.66,1.28
					c-0.58,0.93-0.93,2.09-1.05,3.6h-4.41c0.12-3.02,1.05-5.22,2.67-6.73c1.62-1.51,3.59-2.2,5.91-2.2c1.16,0,2.2,0.12,3.25,0.58
					c1.04,0.35,2.09,0.81,3.02,1.62c1.04,0.81,1.97,1.39,2.78,1.74c0.81,0.46,1.62,0.58,2.43,0.58c1.16,0,1.97-0.34,2.67-1.27
					c0.58-0.93,1.04-2.09,1.04-3.48H229.35z M173.01,447.15c0,1.74-0.46,3.36-1.39,4.99c-0.92,1.74-2.2,3.13-3.83,4.29
					c-1.73,1.28-3.94,2.2-6.26,2.9c-2.43,0.7-5.32,1.05-8.69,1.05c-3.71,0-6.95-0.24-9.85-0.82c-2.89-0.58-5.8-1.51-8.81-2.67v-7.31
					h0.46c2.55,1.86,5.46,3.25,8.81,4.29c3.36,1.05,6.49,1.51,9.39,1.51c4.17,0,7.42-0.69,9.74-1.97c2.32-1.39,3.48-3.25,3.48-5.45
					c0-1.98-0.58-3.37-1.62-4.3c-1.16-0.93-2.78-1.63-4.99-2.21c-1.74-0.34-3.6-0.7-5.56-0.93c-1.98-0.23-4.06-0.58-6.26-0.93
					c-4.52-0.81-7.76-2.32-9.97-4.29c-2.09-1.97-3.25-4.52-3.25-7.77c0-3.6,1.86-6.61,5.33-9.05c3.59-2.32,8.12-3.48,13.68-3.48
					c3.48,0,6.72,0.34,9.73,0.93c2.9,0.58,5.57,1.27,7.89,2.2v6.84h-0.46c-1.97-1.39-4.52-2.55-7.65-3.48
					c-3.13-1.04-6.25-1.39-9.62-1.39c-3.59,0-6.49,0.58-8.58,1.86c-2.2,1.28-3.25,3.01-3.25,4.99c0,1.86,0.46,3.25,1.62,4.3
					c1.04,1.04,2.9,1.85,5.68,2.43c1.39,0.23,3.48,0.58,6.14,1.05c2.67,0.35,4.99,0.7,6.84,1.16c3.72,0.81,6.49,2.2,8.47,3.94
					C172.08,441.59,173.01,444.02,173.01,447.15L173.01,447.15z M751.36,247.72l-23.99,22.97c-16.35-17.28-34.67-25.87-55.07-25.87
					c-17.16,0-31.65,5.92-43.48,17.64c-11.71,11.72-17.62,26.22-17.62,43.51c0,11.95,2.55,22.63,7.76,31.9
					c5.22,9.29,12.64,16.59,22.14,21.93c9.63,5.33,20.18,7.88,31.76,7.88c9.97,0,19.13-1.86,27.36-5.57
					c8.01-3.6,18.55-10.09,28.17-19.49c-5.45,8.12-9.39,23.67-9.85,32.95c-0.46,9.16,0,10.56,0.81,15.43
					c-1.62,0.7-4.87,1.51-6.48,2.09c-11.72,4.99-25.28,7.54-40.46,7.54c-27.94,0-50.77-8.82-68.62-26.57
					c-17.85-17.75-26.78-40.49-26.78-68.22c0-17.98,4.05-33.99,12.17-47.91c8.12-13.92,19.7-25.17,34.89-33.64
					c15.07-8.47,31.42-12.76,48.8-12.76c14.95,0,29.21,3.14,42.9,9.4C729.57,227.3,741.39,236.24,751.36,247.72L751.36,247.72z
					 M129.88,216.05h33.97V396.1h-33.97V216.05z M355.36,247.72l-23.99,22.97c-16.23-17.28-34.55-25.87-54.95-25.87
					c-17.27,0-31.76,5.92-43.48,17.64c-11.82,11.72-17.74,26.22-17.74,43.51c0,11.95,2.67,22.63,7.89,31.9
					c5.21,9.29,12.52,16.59,22.03,21.93c9.62,5.33,20.17,7.88,31.88,7.88c9.97,0,19.01-1.86,27.24-5.57
					c8.23-3.71,17.27-10.44,27.13-20.19l23.3,24.25c-13.33,12.99-25.85,21.93-37.68,26.91c-11.82,4.99-25.27,7.54-40.46,7.54
					c-27.94,0-50.89-8.82-68.75-26.57c-17.73-17.75-26.66-40.49-26.66-68.22c0-17.98,4.06-33.99,12.17-47.91
					c8.11-13.92,19.71-25.17,34.77-33.64c15.19-8.47,31.42-12.76,48.93-12.76c14.84,0,29.1,3.14,42.9,9.4
					C333.56,227.3,345.39,236.24,355.36,247.72L355.36,247.72z M968.72,234.15h-6.37v67.87H928.5v6.03H970l-0.82-31.55l39.65-0.35
					v-37.01c0,0,1.74-6.73-1.62-12.53c-3.36-5.92-4.41-8.24-9.97-11.02c-5.56-2.67-7.65-3.14-14.03-3.14c-6.48,0-38.03,0-38.03,0
					s-5.32,0-8.69,1.28c-3.48,1.4-5.8,2.79-7.76,4.76c-1.98,2.09-3.36,4.88-3.36,4.88s-2.55-3.14-4.3-4.88
					c-1.62-1.74-4.41-3.48-6.61-4.64c-2.21-1.16-7.77-1.62-10.44-1.62c-2.66,0-41.26,0-41.26,0s-7.19-0.35-14.27,3.6
					c-7.07,4.06-8.46,10.2-9.16,14.38c-0.7,4.18-0.7,4.75-0.7,6.15c0,1.28,0,6.38,0,6.38l11.71,12.64l27.71,29.94l4.64-4.06
					l-37.79-40.72c0,0,0.23-7.31,0.7-9.75c0.58-2.55,2.55-6.61,5.33-8.47c2.89-1.74,5.68-3.6,11.59-3.71
					c5.8-0.12,42.9-0.12,42.9-0.12s6.49,0.7,9.16,2.9c2.67,2.21,4.64,3.83,5.8,6.85c1.16,3.13,1.62,6.49,1.62,6.49h6.49
					c0,0,1.27-6.49,3.01-9.04c1.86-2.55,6.02-5.92,10.44-6.61c4.52-0.7,24.11-0.58,24.11-0.58h18.9c0,0,8,0.46,11.01,3.59
					c3.13,3.02,5.1,5.1,6.03,9.28c0.81,4.06,0.58,12.65,0.58,12.65l0.58,25.98h-33.97L968.72,234.15z M390.37,216.05h33.5
					l41.62,125.64l42.2-125.64h32.92l30.37,180.05h-33.04l-19.36-113.7l-38.26,113.7h-30.14l-37.79-113.7l-19.71,113.7H359.3
					L390.37,216.05z"/>
			</g>
			<g>
				<path class="st4" d="M1003.33,423.95l-3.36-3.49c19.67-18.9,28.11-39.02,23.78-56.64c-3.29-13.41-14.06-24.29-28.1-28.39
					c-28.05-8.27-66.99,24.57-112.07,62.64l-0.7,0.58l-3.13-3.7l0.7-0.59c46.15-38.97,86-72.61,116.56-63.58
					c15.69,4.57,27.74,16.79,31.45,31.88C1033.21,382.04,1024.29,403.81,1003.33,423.95z"/>
			</g>
			<g>
				<path class="st4" d="M906.53,418.03l-3.13-3.71c18.52-15.62,42.9-35.28,67.28-48.76c10.39-5.53,19.82-5.39,25.24,0.35
					c4.62,4.9,4.91,12.51,0.72,19.38l-14.72,17.15l-3.67-3.16l14.49-16.83c2.78-4.64,2.74-9.95-0.34-13.22
					c-3.83-4.06-11.08-3.84-19.4,0.58C949.02,383.08,924.88,402.55,906.53,418.03z"/>
			</g>
			<g>
				<path class="st4" d="M982.1,602c-7.95,0-16.33-0.86-25.09-2.58l0.94-4.76c36.33,7.17,65.85-1.31,83.11-23.93
					c16.03-20.99,19.31-53,7.8-76.09c-25.97-46.15-57.55-83.76-96.5-114.85l3.02-3.79c39.44,31.49,71.42,69.56,97.75,116.37
					c12.54,25.16,9.13,58.55-8.23,81.3C1030.7,592.3,1008.88,602,982.1,602z"/>
			</g>
			<g>
				<path class="st4" d="M982.09,569.08c-1.83,0-3.7-0.08-5.58-0.26l0.45-4.82c16.71,1.55,31.19-4.43,39.71-16.36
					c7.48-10.47,9.23-24.12,4.45-34.76c-23.94-42.83-56.82-83.68-92.48-114.83l3.19-3.65c36.06,31.51,69.31,72.81,93.61,116.31
					c5.57,12.37,3.63,27.9-4.83,39.75C1012.03,562.46,998.2,569.08,982.09,569.08z"/>
			</g>
			<g>
				<path class="st4" d="M879.86,630.37c-28.55,0-55.26-10.73-71.49-30.88l3.78-3.03c24.27,30.13,75.92,37.79,117.61,17.44
					c40.53-19.79,58.3-59.13,47.56-105.28c-0.91-1.97-1.79-3.95-2.68-5.92c-4.31-9.66-8.38-18.78-15.13-25.26l3.36-3.5
					c7.43,7.13,11.89,17.12,16.2,26.78c0.9,2.03,1.81,4.06,2.75,6.09l0.16,0.47c11.4,48.61-7.33,90.1-50.1,110.98
					C915.14,626.42,897.16,630.36,879.86,630.37z"/>
			</g>
			<g>
				<path class="st4" d="M926.4,580.86c-26.72-27.75-23.28-57.22-17.29-79.8c8.28-21.08,19.9-37.07,32.21-54
					c5.15-7.09,10.49-14.43,15.52-22.12l4.05,2.65c-5.1,7.79-10.46,15.18-15.65,22.32c-12.12,16.67-23.57,32.41-31.53,52.65
					c-5.58,21.08-8.86,48.92,16.18,74.93L926.4,580.86z"/>
			</g>
			<g>
				<path class="st4" d="M948.56,552.16c-14.72-10.29-14.15-35.16-7.26-48.46c8.54-15.88,22.11-38.71,38.34-57.55l3.67,3.16
					c-15.95,18.51-29.32,41.02-37.73,56.64c-6.71,12.96-5.67,34.25,5.75,42.23L948.56,552.16z"/>
			</g>
			<g>
				<path class="st4" d="M882.96,596.42c-15.26,0-30.45-4.63-42.46-15.45l3.25-3.6c23.84,21.49,61.51,16.52,84.13-0.68
					c23.33-17.74,28.94-44.98,15.02-72.9l4.34-2.16c15.04,30.16,8.9,59.66-16.42,78.92C917.91,590.37,900.4,596.42,882.96,596.42z"
					/>
			</g>
			<g>
				<path class="st4" d="M774.23,607.6c-0.6,0-1.2,0-1.8-0.01c-21.53-0.71-41.16-12.64-52.55-31.91
					c-14.86-25.14-14.05-57.89,2.2-89.84c8.08-15.39,17.83-27.77,27.25-39.73c4.83-6.13,9.82-12.47,14.55-19.16l3.96,2.8
					c-4.81,6.79-9.83,13.18-14.7,19.35c-9.72,12.34-18.89,23.99-26.75,38.96c-15.48,30.42-16.34,61.46-2.34,85.14
					c10.55,17.85,28.67,28.89,48.49,29.53c34.67,0.42,62.76-13.26,76.8-37.67c13.67-23.79,11.86-54.61-4.87-82.45l4.16-2.5
					c17.64,29.37,19.48,62.03,4.92,87.36C838.84,593.04,810,607.6,774.23,607.6z"/>
			</g>
			<g>
				<path class="st4" d="M818.87,555.32c-8.08-16.16-5.07-38.3,7.16-52.66c13.23-19.35,28.83-37.1,45.34-55.9l8.58-9.79l3.65,3.19
					l-8.59,9.8c-16.41,18.68-31.92,36.33-45.14,55.64c-11.17,13.14-13.92,33.05-6.67,47.55L818.87,555.32z"/>
			</g>
			<g>
				<path class="st4" d="M921.19,480.97l-8.84-9.2c-23.78-24.79-48.36-50.41-77.21-71.51l2.86-3.92
					c29.2,21.35,53.93,47.13,77.85,72.06l8.83,9.19L921.19,480.97z"/>
			</g>
			<g>
				<path class="st4" d="M788.96,574.43c-11.43-31.87-8.64-62.27,7.66-83.39c12.81-21.68,28.93-39.24,45.98-57.83
					c5.6-6.1,11.25-12.25,16.84-18.63l3.65,3.19c-5.61,6.4-11.29,12.59-16.91,18.72c-16.88,18.39-32.83,35.77-45.54,57.26
					c-15.44,20.04-17.97,48.76-7.11,79.05L788.96,574.43z"/>
			</g>
			<g>
				<path class="st4" d="M781.82,574.98c-11-0.51-25.27-7.21-33.09-20.97c-5.8-10.23-9.94-27.63,3.27-52.42
					c9.1-17.3,19.44-32.67,33.54-49.82l3.75,3.08c-13.89,16.88-24.06,32-33.01,49c-12.19,22.86-8.53,38.6-3.34,47.76
					c6.91,12.17,19.43,18.08,28.79,18.54c25.25-2.09,36.53-13.3,41.49-22.33c7.36-13.39,4.82-27.92,0.41-36.3l4.29-2.25
					c4.97,9.44,7.83,25.82-0.45,40.89C821.95,560.22,809.53,572.7,781.82,574.98z"/>
			</g>
			<g>
				<path class="st4" d="M805.15,482.37c-6.67-14.81-20.57-28.88-34-42.5c-15.34-15.54-29.83-30.21-35.07-46.38
					c-5.84-26.5,1.16-47.26,19.15-57.16c22.63-12.47,55.97-3.81,81.08,21.05l-3.41,3.44c-23.58-23.36-54.56-31.68-75.33-20.25
					c-15.97,8.8-22.11,27.62-16.82,51.65c4.82,14.85,18.92,29.13,33.85,44.25c13.74,13.91,27.95,28.31,34.97,43.92L805.15,482.37z"
					/>
			</g>
			<g>
				<path class="st4" d="M827.23,454.79c-8.18-10.54-17.01-20.37-25.55-29.87c-10.71-11.92-21.79-24.24-31.54-37.97l-0.34-0.7
					c-4.09-13.4,0.49-18.97,3.59-21.1c8.29-5.7,23.98-0.69,41.96,13.38l-2.99,3.82c-19.13-14.96-31.47-16.47-36.23-13.2
					c-3.4,2.33-4.04,7.76-1.8,15.31c9.53,13.37,20.43,25.49,30.96,37.21c8.6,9.56,17.49,19.45,25.78,30.14L827.23,454.79z"/>
			</g>
			<g>
				<path class="st4" d="M809.51,430.87l-3.85-2.95c16.09-20.97,38.56-41.93,64.98-60.6c17.85-9.55,29.56-0.02,38.98,7.63
					l-3.06,3.77c-10.91-8.89-19.69-14.6-33.38-7.28C847.42,389.67,825.31,410.28,809.51,430.87z"/>
			</g>
			<g>
				<path class="st4" d="M787.3,408.7l-3.48-3.38c3.73-3.85,7.48-7.78,11.26-11.75c20.52-21.56,41.73-43.84,67.61-59.07
					c34.66-12.23,57.33,6.66,71.41,21.91l-3.56,3.29c-14.27-15.46-34.63-31.8-65.81-20.82c-24.87,14.69-45.84,36.73-66.13,58.04
					C794.8,400.89,791.05,404.84,787.3,408.7z"/>
			</g>
			<g>
				<path class="st4" d="M993.88,415.26l-5.56-7.45c19.59-14.61,23.05-36.13,15.03-47.68c-7.67-11.04-24.15-10.34-43.01,1.83
					l-0.46,0.26c-6.85,3.39-19.75,13.31-37.61,27.05c-7.71,5.93-16.38,12.59-25.98,19.83l-5.59-7.42
					c9.58-7.22,18.22-13.87,25.91-19.78c18.77-14.43,31.23-24.02,38.92-27.89c27.98-17.96,46.99-11.37,55.46,0.82
					C1021.47,369.93,1017.91,397.33,993.88,415.26z"/>
			</g>
			<g>
				<path class="st4" d="M938.4,453.4c-22.76-25.46-48.46-47.03-79.71-72.6l3.07-3.75c31.41,25.7,57.27,47.4,80.26,73.12
					L938.4,453.4z"/>
			</g>
			<g>
				<path class="st4" d="M982.68,587.28c-4.61,0-9.42-0.31-14.41-0.94l1.16-9.21c28.66,3.6,49.5-3.71,60.22-21.13
					c12.03-19.53,8.04-45.66-1.82-60.31c-22.47-38.12-55.14-76.32-89.76-105.05l5.93-7.15c35.42,29.38,68.84,68.48,91.69,107.25
					c11.33,16.83,15.93,47.29,1.87,70.13C1026.92,578.14,1007.72,587.28,982.68,587.28z"/>
			</g>
			<g>
				<path class="st4" d="M936.88,570.34c-40.68-39.13-7.47-85.82,14.5-116.72c5.66-7.96,10.55-14.83,13.32-20.29l8.28,4.21
					c-3.09,6.07-8.16,13.2-14.04,21.47c-21.33,29.99-50.54,71.06-15.64,104.64L936.88,570.34z"/>
			</g>
			<g>
				<path class="st4" d="M881.16,616.63c-19.85,0-40.38-6.24-58.44-21.1l5.9-7.17c36.9,30.36,85.25,20.74,112.02-3.73
					c21.5-19.65,34.98-54.54,8.37-93.56l7.67-5.23c29.97,43.92,14.6,83.37-9.77,105.65C930.34,606.63,906.29,616.62,881.16,616.63z"
					/>
			</g>
			<g>
				<path class="st4" d="M927.58,467.88c-5.2-5.07-10.39-10.2-15.58-15.34c-21.12-20.9-42.96-42.52-67.46-61.21l5.63-7.38
					c24.98,19.05,47.03,40.88,68.37,61.99c5.18,5.13,10.34,10.24,15.53,15.3L927.58,467.88z"/>
			</g>
			<g>
				<path class="st4" d="M801.88,567.67c-9.87-24.75-8-48.95,5.39-70c14.86-22.38,33.72-45.18,61.18-74.03l6.73,6.41
					c-27.07,28.44-45.61,50.86-60.12,72.68c-11.67,18.34-13.26,39.63-4.55,61.49L801.88,567.67z"/>
			</g>
			<g>
				<path class="st4" d="M774.59,593.46l-0.29-0.03c-16.18-1.71-31.39-10.92-40.7-24.63c-10.22-15.07-12.75-34.44-7.11-54.56
					c6.21-21.43,23.86-49.2,48.45-76.24l6.87,6.25c-23.66,26.03-40.57,52.46-46.39,72.53c-6.25,22.31-0.26,37.76,5.86,46.8
					c7.74,11.4,20.31,19.07,33.7,20.58c35.5-0.86,51.62-16.06,58.9-28.68c9.89-17.14,9.23-40.19-1.73-60.14l8.15-4.47
					c12.51,22.78,13.14,49.32,1.64,69.26c-12.01,20.81-35.82,32.65-67.05,33.34L774.59,593.46z"/>
			</g>
			<g>
				<path class="st4" d="M814.39,469.1c-7.69-11.53-19.5-23.88-30.92-35.83c-13.42-14.04-26.1-27.3-31.43-38.55
					c-7.74-17.86-4.43-35.27,8.37-44.52c12.7-9.17,37.47-11,65.46,14.01l-6.19,6.93c-23.88-21.35-43.93-20.56-53.84-13.41
					c-9.26,6.69-11.31,19.39-5.35,33.15c4.62,9.75,16.8,22.49,29.69,35.97c11.7,12.24,23.8,24.89,31.94,37.1L814.39,469.1z"/>
			</g>
			<g>
				<path class="st4" d="M801.63,419.63l-7.11-5.98c19.84-23.59,38.65-39.83,63.06-60.21l0.72-0.49
					c29.78-16.56,46.16-3.55,60.61,7.93l3.4,2.68l-5.71,7.33l-3.46-2.73c-13.86-11.01-25.84-20.52-49.94-7.29
					C839.33,380.79,820.89,396.73,801.63,419.63z"/>
			</g>
			<g>
				<path class="st4" d="M827.55,454.54c-8.19-10.56-17.03-20.39-25.57-29.89c-10.71-11.91-21.78-24.23-31.51-37.93l1.73-1.22
					l-2.01,0.65l-0.02-0.06c0-0.01-0.01-0.02-0.01-0.03c-0.11-0.35-0.21-0.7-0.3-1.04c-2.04-7.35-1.62-13.24,1.22-17.08
					c2.25-3.04,5.91-4.66,10.58-4.66c0,0,0,0,0,0v4.04c-3.39,0-5.85,1.01-7.34,3.01c-2.13,2.88-2.26,7.95-0.38,14.31
					c9.56,13.41,20.47,25.55,31.04,37.3c8.59,9.56,17.48,19.44,25.76,30.12L827.55,454.54z M812.6,382.03
					c-0.23-0.18-0.46-0.35-0.69-0.53c-11.69-9.02-22.68-14.17-30.24-14.18l0-2l-0.02,2v-0.01v0.01v-4.04v0.01v-0.01l0.02,2v-2
					c0,0,0,0,0,0c8.59,0.01,20.24,5.39,32.85,15.15c0.07,0.05,0.13,0.1,0.19,0.15c0.02,0.01,0.03,0.02,0.05,0.04
					c0,0,0.01,0.01,0.02,0.01c0,0,0.01,0.01,0.02,0.02c0.03,0.02,0.06,0.05,0.08,0.07c0.03,0.02,0.05,0.04,0.07,0.06
					c0.03,0.03,0.07,0.05,0.1,0.07L812.6,382.03z"/>
			</g>
			<g>
				<path class="st4" d="M804.32,566.7c-3.99-10.01-6.02-20.06-6.02-29.85c0-13.4,3.76-26.1,11.18-37.77
					c14.75-22.2,33.51-44.9,60.86-73.62l2.92,2.78c-27.19,28.55-45.81,51.08-60.4,73.05c-6.98,10.97-10.52,22.95-10.53,35.56
					c0,9.28,1.93,18.81,5.73,28.35L804.32,566.7z"/>
			</g>
		</g>
	</g>
</g>
</svg>
